<?xml version="1.0" encoding="UTF-8" standalone="no"?>
<!DOCTYPE svg PUBLIC "-//W3C//DTD SVG 1.1//EN" "http://www.w3.org/Graphics/SVG/1.1/DTD/svg11.dtd">
<svg width="100%" height="100%" viewBox="0 0 512 512" version="1.1" xmlns="http://www.w3.org/2000/svg" xmlns:xlink="http://www.w3.org/1999/xlink" xml:space="preserve" xmlns:serif="http://www.serif.com/" style="fill-rule:evenodd;clip-rule:evenodd;stroke-linejoin:round;stroke-miterlimit:2;">
    <g transform="matrix(0.5,0,0,0.5,0,0)">
        <rect x="0" y="0" width="1024" height="1024" style="fill:rgb(0,163,76);"/>
        <g transform="matrix(31.1029,0,0,31.1029,138.765,123.724)">
            <path d="M5.385,21.231C4.924,21.231 4.54,21.077 4.232,20.768C3.923,20.46 3.769,20.076 3.769,19.616L3.769,17.027C3.769,16.832 3.801,16.64 3.865,16.452C3.929,16.264 4.032,16.097 4.173,15.952L6.627,13.183C6.721,13.069 6.839,13.011 6.984,13.009C7.128,13.007 7.255,13.061 7.365,13.171C7.459,13.265 7.508,13.374 7.511,13.5C7.515,13.626 7.47,13.744 7.377,13.854L4.809,16.769L19.19,16.769L16.673,13.904C16.579,13.794 16.535,13.676 16.538,13.55C16.542,13.424 16.591,13.315 16.684,13.221C16.795,13.111 16.922,13.057 17.066,13.059C17.211,13.061 17.329,13.119 17.423,13.233L19.827,15.952C19.968,16.097 20.07,16.264 20.134,16.452C20.199,16.64 20.231,16.832 20.231,17.027L20.231,19.616C20.231,20.076 20.077,20.46 19.768,20.768C19.46,21.077 19.076,21.231 18.615,21.231L5.385,21.231ZM5.385,20.231L18.616,20.231C18.782,20.231 18.926,20.17 19.048,20.048C19.17,19.926 19.231,19.782 19.231,19.616L19.231,17.769L4.769,17.769L4.769,19.616C4.769,19.782 4.83,19.926 4.952,20.048C5.074,20.17 5.218,20.231 5.385,20.231ZM10.894,13.913L7.908,10.888C7.588,10.569 7.433,10.188 7.441,9.745C7.45,9.302 7.613,8.921 7.933,8.602L12.314,4.221C12.633,3.902 13.011,3.74 13.45,3.736C13.889,3.733 14.267,3.89 14.587,4.209L17.592,7.215C17.912,7.535 18.073,7.912 18.077,8.346C18.081,8.781 17.923,9.158 17.604,9.477L13.162,13.919C12.842,14.238 12.465,14.397 12.028,14.395C11.591,14.393 11.213,14.233 10.894,13.913ZM16.866,8.794C16.968,8.692 17.019,8.544 17.019,8.352C17.019,8.16 16.968,8.012 16.866,7.909L13.898,4.942C13.795,4.84 13.648,4.788 13.456,4.788C13.263,4.788 13.116,4.84 13.013,4.942L8.621,9.334C8.519,9.437 8.467,9.585 8.467,9.777C8.467,9.969 8.519,10.117 8.621,10.219L11.589,13.187C11.691,13.289 11.838,13.341 12.031,13.341C12.223,13.341 12.371,13.289 12.473,13.187L16.866,8.794ZM4.769,20.231L4.769,17.769L4.769,20.231Z" style="fill:rgb(235,255,244);fill-rule:nonzero;"/>
        </g>
        <g transform="matrix(4.50782,4.98248,-4.98248,4.50782,538.929,289.256)">
            <path d="M12,6L14,6L14,4L12,4L12,6ZM5,14L7,14L7,12L5,12L5,14ZM17,20L19,20L19,18L17,18L17,20ZM15,20L15,19.5L8,16L5,16C4.45,16 3.979,15.804 3.588,15.413C3.196,15.021 3,14.55 3,14L3,12C3,11.45 3.196,10.979 3.588,10.587C3.979,10.196 4.45,10 5,10L7.3,10L10,6.9L10,4C10,3.45 10.196,2.979 10.588,2.587C10.979,2.196 11.45,2 12,2L14,2C14.55,2 15.021,2.196 15.413,2.587C15.804,2.979 16,3.45 16,4L16,6C16,6.55 15.804,7.021 15.413,7.412C15.021,7.804 14.55,8 14,8L11.7,8L9,11.1L9,14.25L15.125,17.3C15.258,16.917 15.496,16.604 15.838,16.363C16.179,16.121 16.567,16 17,16L19,16C19.55,16 20.021,16.196 20.413,16.588C20.804,16.979 21,17.45 21,18L21,20C21,20.55 20.804,21.021 20.413,21.413C20.021,21.804 19.55,22 19,22L17,22C16.45,22 15.979,21.804 15.588,21.413C15.196,21.021 15,20.55 15,20Z" style="fill:rgb(235,255,244);fill-rule:nonzero;"/>
        </g>
    </g>
</svg>
